<?xml version="1.0" encoding="UTF-8"?>
<svg width="60px" height="60px" viewBox="0 0 60 60" version="1.1" xmlns="http://www.w3.org/2000/svg" xmlns:xlink="http://www.w3.org/1999/xlink">
    <title>Shipment notifications </title>
    <g id="Shipment-notifications-" stroke="none" stroke-width="1" fill="none" fill-rule="evenodd">
        <g id="编组-33" transform="translate(2.000000, 4.000000)" stroke="#292929">
            <path d="M25.3809363,20.4606411 L9.45114238,20.4606411 C8.06776647,20.4606411 6.79466066,21.2155879 6.1310841,22.4294228 L1.20271884,31.4445416 C0.898455448,32.0011097 0.738993336,32.6252377 0.738993336,33.2595437 L0.738993336,38.5794521 C0.738993336,40.6691782 2.43305104,42.3632359 4.52277712,42.3632359 L29.1040413,42.3632359 L29.1040413,42.3632359 L29.1040413,24.1837462 C29.1040413,22.127532 27.4371504,20.4606411 25.3809363,20.4606411 Z" id="路径-42" stroke-width="2.95135135" fill="#FFFFFF"></path>
            <path d="M52.0633986,12.660369 C52.9410311,12.657477 53.7367504,13.0105896 54.3137846,13.5838333 C54.8908188,14.1570771 55.2491679,14.9504519 55.2520519,15.8232233 L55.2520519,15.8232233 L55.2520772,39.1097443 C55.2520772,39.9873815 54.8963444,40.7819329 54.3212023,41.357075 C53.7460602,41.9322171 52.9515088,42.2879499 52.0738716,42.2879499 L52.0738716,42.2879499 L22.9527533,42.2879499 L22.9527533,15.9240462 C22.9527533,15.0484532 23.3068924,14.2553487 23.8799285,13.6804212 C24.4529646,13.1054937 25.2448977,12.7487431 26.1204859,12.7458578 L26.1204859,12.7458578 Z" id="矩形" stroke-width="2.95135135" fill="#FFFFFF"></path>
            <circle id="椭圆形" stroke-width="2.95135135" fill="#FFFFFF" cx="13.6744001" cy="44.0435403" r="5.25759937"></circle>
            <circle id="椭圆形" stroke-width="2.95135135" fill="#FFFFFF" cx="41.3996502" cy="44.0435403" r="5.25759937"></circle>
            <path d="M13.6744001,21.1057379 L13.6744001,28.1585377 C13.6744001,30.2147518 12.0075092,31.8816427 9.95129505,31.8816427 L1.68909574,31.8816427 L1.68909574,31.8816427" id="路径-22" stroke-width="2.95135135" stroke-linecap="round"></path>
            <path d="M49.8657534,29.7848402 L49.8657534,33.7751032 C49.8657534,34.2891567 49.4490307,34.7058794 48.9349772,34.7058794 L45.2118721,34.7058794 L45.2118721,34.7058794" id="路径" stroke-width="2.95135135" stroke-linecap="round"></path>
            <circle id="椭圆形" stroke-width="2.76216216" fill="#FFFFFF" cx="28.6164384" cy="12.2739726" r="12.2739726"></circle>
            <g id="bell" transform="translate(20.945205, 3.068493)">
                <g id="矩形" transform="translate(0.525953, 0.000000)">
                    <path d="M7.13083199,11.7881452 C7.96124736,11.7881452 8.70734934,12.0734008 9.2495857,12.515223 C9.87656823,13.0260977 10.2376813,13.73974 10.2376813,14.5114329 C10.2376813,15.2831258 9.87656823,15.9967681 9.2495857,16.5076428 C8.70734934,16.949465 7.96124736,17.2347206 7.13083199,17.2347206 C6.30041662,17.2347206 5.55431465,16.949465 5.01207829,16.5076428 C4.38509576,15.9967681 4.02398268,15.2831258 4.02398268,14.5114329 C4.02398268,13.73974 4.38509576,13.0260977 5.01207829,12.515223 C5.55431465,12.0734008 6.30041662,11.7881452 7.13083199,11.7881452 Z" id="椭圆形" stroke-width="2.07123288" fill="#FFA013"></path>
                    <path d="M7.10252805,1.77718631 C8.67010888,1.77718631 10.089287,2.41257398 11.1165698,3.43985686 C12.1438527,4.46713973 12.7792404,5.88631781 12.7792404,7.45389864 L12.7792404,7.45389864 L12.7792404,13.8636971 L1.42581572,13.8636971 L1.42581572,7.45389864 C1.42581572,5.88631781 2.06120339,4.46713973 3.08848627,3.43985686 C4.11576915,2.41257398 5.53494723,1.77718631 7.10252805,1.77718631 Z" stroke-width="2.45479452" fill="#FFFFFF"></path>
                </g>
                <line x1="0.96554175" y1="13.8975807" x2="14.3309297" y2="13.8975807" id="路径" stroke-width="2.45479452" stroke-linecap="round"></line>
            </g>
        </g>
        <g id="编组-33" transform="translate(2.000000, 4.000000)" stroke="#292929">
            <path d="M25.3809363,20.4606411 L9.45114238,20.4606411 C8.06776647,20.4606411 6.79466066,21.2155879 6.1310841,22.4294228 L1.20271884,31.4445416 C0.898455448,32.0011097 0.738993336,32.6252377 0.738993336,33.2595437 L0.738993336,38.5794521 C0.738993336,40.6691782 2.43305104,42.3632359 4.52277712,42.3632359 L29.1040413,42.3632359 L29.1040413,42.3632359 L29.1040413,24.1837462 C29.1040413,22.127532 27.4371504,20.4606411 25.3809363,20.4606411 Z" id="路径-42" stroke-width="2.95135135" fill="#FFFFFF"></path>
            <path d="M52.0633986,12.660369 C52.9410311,12.657477 53.7367504,13.0105896 54.3137846,13.5838333 C54.8908188,14.1570771 55.2491679,14.9504519 55.2520519,15.8232233 L55.2520519,15.8232233 L55.2520772,39.1097443 C55.2520772,39.9873815 54.8963444,40.7819329 54.3212023,41.357075 C53.7460602,41.9322171 52.9515088,42.2879499 52.0738716,42.2879499 L52.0738716,42.2879499 L22.9527533,42.2879499 L22.9527533,15.9240462 C22.9527533,15.0484532 23.3068924,14.2553487 23.8799285,13.6804212 C24.4529646,13.1054937 25.2448977,12.7487431 26.1204859,12.7458578 L26.1204859,12.7458578 Z" id="矩形" stroke-width="2.95135135" fill="#FFA622"></path>
            <circle id="椭圆形" stroke-width="2.95135135" fill="#FFFFFF" cx="13.6744001" cy="44.0435403" r="5.25759937"></circle>
            <circle id="椭圆形" stroke-width="2.95135135" fill="#FFFFFF" cx="41.3996502" cy="44.0435403" r="5.25759937"></circle>
            <path d="M13.6744001,21.1057379 L13.6744001,28.1585377 C13.6744001,30.2147518 12.0075092,31.8816427 9.95129505,31.8816427 L1.68909574,31.8816427 L1.68909574,31.8816427" id="路径-22" stroke-width="2.95135135" stroke-linecap="round"></path>
            <path d="M49.8657534,29.7848402 L49.8657534,33.7751032 C49.8657534,34.2891567 49.4490307,34.7058794 48.9349772,34.7058794 L45.2118721,34.7058794 L45.2118721,34.7058794" id="路径" stroke-width="2.95135135" stroke-linecap="round"></path>
            <circle id="椭圆形" stroke-width="2.76216216" fill="#FFFFFF" cx="28.6164384" cy="12.2739726" r="12.2739726"></circle>
            <g id="bell" transform="translate(20.945205, 3.068493)">
                <g id="矩形" transform="translate(0.525953, 0.000000)">
                    <path d="M7.13083199,11.7881452 C7.96124736,11.7881452 8.70734934,12.0734008 9.2495857,12.515223 C9.87656823,13.0260977 10.2376813,13.73974 10.2376813,14.5114329 C10.2376813,15.2831258 9.87656823,15.9967681 9.2495857,16.5076428 C8.70734934,16.949465 7.96124736,17.2347206 7.13083199,17.2347206 C6.30041662,17.2347206 5.55431465,16.949465 5.01207829,16.5076428 C4.38509576,15.9967681 4.02398268,15.2831258 4.02398268,14.5114329 C4.02398268,13.73974 4.38509576,13.0260977 5.01207829,12.515223 C5.55431465,12.0734008 6.30041662,11.7881452 7.13083199,11.7881452 Z" id="椭圆形" stroke-width="2.07123288" fill="#FFA622"></path>
                    <path d="M7.10252805,1.77718631 C8.67010888,1.77718631 10.089287,2.41257398 11.1165698,3.43985686 C12.1438527,4.46713973 12.7792404,5.88631781 12.7792404,7.45389864 L12.7792404,7.45389864 L12.7792404,13.8636971 L1.42581572,13.8636971 L1.42581572,7.45389864 C1.42581572,5.88631781 2.06120339,4.46713973 3.08848627,3.43985686 C4.11576915,2.41257398 5.53494723,1.77718631 7.10252805,1.77718631 Z" stroke-width="2.45479452" fill="#FFFFFF"></path>
                </g>
                <line x1="0.96554175" y1="13.8975807" x2="14.3309297" y2="13.8975807" id="路径" stroke-width="2.45479452" stroke-linecap="round"></line>
            </g>
        </g>
    </g>
</svg>